<svg xmlns="http://www.w3.org/2000/svg" width="14.4" height="16" viewBox="0 0 14.4 16">
    <path fill="#333" d="M18.1 19a.756.756 0 0 1-.8-.8v-1.6a2.357 2.357 0 0 0-2.4-2.4H8.5a2.357 2.357 0 0 0-2.4 2.4v1.6a.756.756 0 0 1-.8.8.756.756 0 0 1-.8-.8v-1.6a3.961 3.961 0 0 1 4-4h6.4a3.961 3.961 0 0 1 4 4v1.6a.756.756 0 0 1-.8.8zm-6.4-8a3.961 3.961 0 0 1-4-4 4 4 0 1 1 8 0 3.961 3.961 0 0 1-4 4zm0-6.4A2.357 2.357 0 0 0 9.3 7a2.4 2.4 0 1 0 4.8 0 2.357 2.357 0 0 0-2.4-2.4z" transform="translate(-4.5 -3)"/>
</svg>
