<svg xmlns="http://www.w3.org/2000/svg" width="18" height="22.513" viewBox="0 0 18 22.513">
    <defs>
        <style>
            .cls-1{fill:#ed2024}
        </style>
    </defs>
    <g id="Icon_ionic-ios-notifications" transform="translate(-6.761 -3.93)">
        <path id="Path_2337" d="M17.375 31.383c1.788 0 2.765-1.265 2.765-3.047H14.6c0 1.782.981 3.047 2.775 3.047z" class="cls-1" transform="translate(-1.625 -4.939)"/>
        <path id="Path_2338" d="M24.533 20.524c-.867-1.137-2.571-1.8-2.571-6.894 0-5.225-2.318-7.325-4.479-7.829-.2-.05-.349-.118-.349-.33v-.163a1.373 1.373 0 1 0-2.746 0v.162c0 .207-.146.28-.349.33-2.166.51-4.479 2.6-4.479 7.83 0 5.091-1.7 5.751-2.571 6.894a1.111 1.111 0 0 0 .894 1.776h15.761a1.111 1.111 0 0 0 .889-1.776z" class="cls-1"/>
    </g>
</svg>
