<svg xmlns="http://www.w3.org/2000/svg" width="11.846" height="11" viewBox="0 0 11.846 11">
    <path fill="#f7c335" d="M13.647 7.183h-3.89L8.575 3.655a.428.428 0 0 0-.8 0L6.589 7.183H2.673a.424.424 0 0 0-.423.423.311.311 0 0 0 .008.071.406.406 0 0 0 .177.3l3.2 2.253-1.23 3.57a.424.424 0 0 0 .145.476.409.409 0 0 0 .238.1.518.518 0 0 0 .264-.1l3.12-2.224 3.12 2.224a.5.5 0 0 0 .264.1.38.38 0 0 0 .235-.1.419.419 0 0 0 .145-.476l-1.227-3.567 3.17-2.274.077-.066a.4.4 0 0 0-.312-.706z" transform="translate(-2.25 -3.375)"/>
</svg>
