<svg xmlns="http://www.w3.org/2000/svg" id="shopping-cart" width="16.304" height="15.625" viewBox="0 0 16.304 15.625">
    <defs>
        <style>
            .cls-1{fill:#333}
        </style>
    </defs>
    <path id="Path_2766" d="M13.217 29.859a1.359 1.359 0 1 1-1.358-1.359 1.359 1.359 0 0 1 1.358 1.359z" class="cls-1" transform="translate(-5.745 -15.592)"/>
    <path id="Path_2767" d="M29.717 29.859a1.359 1.359 0 1 1-1.358-1.359 1.359 1.359 0 0 1 1.358 1.359z" class="cls-1" transform="translate(-14.772 -15.592)"/>
    <path id="Path_2768" d="M6.522 11.549a2.029 2.029 0 0 1-1.97-1.63L3.4 4.212v-.068l-.547-2.785H.679A.642.642 0 0 1 0 .679.642.642 0 0 1 .679 0H3.4a.662.662 0 0 1 .679.543L4.62 3.4h11.005a.618.618 0 0 1 .543.272.732.732 0 0 1 .136.543l-1.087 5.703a2.1 2.1 0 0 1-2.038 1.63zM4.891 4.755l.951 4.891a.662.662 0 0 0 .679.543h6.59a.662.662 0 0 0 .679-.543l1.02-4.891z" class="cls-1"/>
</svg>
